<svg xmlns="http://www.w3.org/2000/svg" xmlns:xlink="http://www.w3.org/1999/xlink" width="480" zoomAndPan="magnify" viewBox="0 0 360 147.750002" height="197" preserveAspectRatio="xMidYMid meet" version="1.0"><defs><g/><clipPath id="039786ecea"><path d="M 122 24 L 139.640625 24 L 139.640625 42 L 122 42 Z M 122 24 " clip-rule="nonzero"/></clipPath><clipPath id="0c455cafd0"><path d="M 108 8.199219 L 119 8.199219 L 119 19 L 108 19 Z M 108 8.199219 " clip-rule="nonzero"/></clipPath></defs><path fill="#0071a8" d="M 65.25 37.476562 C 82.207031 30.414062 99.578125 29.25 113.460938 33.101562 C 97.679688 26.105469 75.730469 26.292969 54.410156 35.175781 C 20.597656 49.269531 1.183594 79.871094 11.042969 103.527344 C 18.3125 120.964844 39.460938 129.75 63.628906 127.523438 C 34.121094 120.574219 27.480469 107.578125 24.828125 101.183594 C 15.632812 79.132812 33.734375 50.605469 65.25 37.476562 Z M 65.25 37.476562 " fill-opacity="1" fill-rule="nonzero"/><path fill="#62c7e3" d="M 136.488281 54.65625 C 134.628906 50.195312 131.636719 46.433594 127.808594 43.4375 C 115.207031 33.535156 93.457031 31.871094 72.445312 40.625 C 57.015625 47.058594 45.28125 57.734375 39.414062 69.265625 C 46.410156 60.351562 56.703125 52.457031 69.300781 47.214844 C 95.679688 36.222656 123.15625 40.5 134.777344 56.316406 C 136.128906 58.160156 137.285156 60.152344 138.175781 62.300781 C 138.28125 62.554688 138.363281 62.816406 138.464844 63.070312 C 138.257812 60.1875 137.621094 57.367188 136.488281 54.65625 Z M 136.488281 54.65625 " fill-opacity="1" fill-rule="nonzero"/><g clip-path="url(#039786ecea)"><path fill="#14bbe2" d="M 139.734375 33.0625 C 133.242188 34.257812 132.277344 35.222656 131.078125 41.714844 C 129.882812 35.222656 128.917969 34.257812 122.425781 33.0625 C 128.917969 31.863281 129.882812 30.898438 131.078125 24.40625 C 132.277344 30.90625 133.242188 31.871094 139.734375 33.0625 Z M 139.734375 33.0625 " fill-opacity="1" fill-rule="nonzero"/></g><g clip-path="url(#0c455cafd0)"><path fill="#62c7e3" d="M 118.15625 13.105469 C 114.929688 14.03125 114.175781 14.785156 113.25 18.015625 C 112.320312 14.785156 111.566406 14.03125 108.339844 13.105469 C 111.566406 12.179688 112.320312 11.425781 113.25 8.199219 C 114.175781 11.425781 114.929688 12.179688 118.15625 13.105469 Z M 118.15625 13.105469 " fill-opacity="1" fill-rule="nonzero"/></g><path fill="#0071a8" d="M 131.078125 16.394531 C 129.464844 16.859375 129.089844 17.238281 128.621094 18.851562 C 128.15625 17.238281 127.777344 16.859375 126.164062 16.394531 C 127.777344 15.925781 128.15625 15.546875 128.621094 13.933594 C 129.089844 15.546875 129.464844 15.925781 131.078125 16.394531 Z M 131.078125 16.394531 " fill-opacity="1" fill-rule="nonzero"/><g fill="#0071a8" fill-opacity="1"><g transform="translate(32.124258, 103.856585)"><g><path d="M 0.234375 -19.375 L 0.234375 -24.21875 L 17.265625 -24.21875 L 17.265625 -19.375 L 11.515625 -19.375 L 11.515625 0 L 5.984375 0 L 5.984375 -19.375 Z M 0.234375 -19.375 "/></g></g></g><g fill="#0071a8" fill-opacity="1"><g transform="translate(49.622459, 103.856585)"><g><path d="M 7.28125 -9.71875 L 7.28125 0 L 1.765625 0 L 1.765625 -24.21875 L 7.28125 -24.21875 L 7.28125 -14.5625 L 15.09375 -14.5625 L 15.09375 -24.21875 L 20.609375 -24.21875 L 20.609375 0 L 15.09375 0 L 15.09375 -9.71875 Z M 7.28125 -9.71875 "/></g></g></g><g fill="#0071a8" fill-opacity="1"><g transform="translate(71.994318, 103.856585)"><g><path d="M 15.625 -24.21875 L 15.625 -19.375 L 7.28125 -19.375 L 7.28125 -14.5625 L 15.265625 -14.5625 L 15.265625 -9.71875 L 7.28125 -9.71875 L 7.28125 -4.84375 L 15.625 -4.84375 L 15.625 0 L 1.765625 0 L 1.765625 -24.21875 Z M 15.625 -24.21875 "/></g></g></g><g fill="#0071a8" fill-opacity="1"><g transform="translate(89.022764, 103.856585)"><g/></g></g><g fill="#0071a8" fill-opacity="1"><g transform="translate(97.037882, 103.856585)"><g><path d="M 14.65625 -4.984375 C 15.488281 -4.984375 16.300781 -5.109375 17.09375 -5.359375 C 17.894531 -5.617188 18.476562 -5.867188 18.84375 -6.109375 L 19.40625 -6.484375 L 21.75 -1.796875 C 21.675781 -1.734375 21.570312 -1.648438 21.4375 -1.546875 C 21.300781 -1.453125 20.984375 -1.269531 20.484375 -1 C 19.984375 -0.738281 19.445312 -0.507812 18.875 -0.3125 C 18.3125 -0.125 17.566406 0.046875 16.640625 0.203125 C 15.722656 0.359375 14.773438 0.4375 13.796875 0.4375 C 11.546875 0.4375 9.410156 -0.113281 7.390625 -1.21875 C 5.378906 -2.320312 3.753906 -3.84375 2.515625 -5.78125 C 1.285156 -7.71875 0.671875 -9.8125 0.671875 -12.0625 C 0.671875 -13.769531 1.03125 -15.40625 1.75 -16.96875 C 2.476562 -18.53125 3.441406 -19.867188 4.640625 -20.984375 C 5.847656 -22.109375 7.253906 -23 8.859375 -23.65625 C 10.472656 -24.320312 12.117188 -24.65625 13.796875 -24.65625 C 15.359375 -24.65625 16.800781 -24.46875 18.125 -24.09375 C 19.445312 -23.726562 20.382812 -23.359375 20.9375 -22.984375 L 21.75 -22.4375 L 19.40625 -17.734375 C 19.269531 -17.847656 19.0625 -17.988281 18.78125 -18.15625 C 18.507812 -18.320312 17.960938 -18.539062 17.140625 -18.8125 C 16.316406 -19.09375 15.488281 -19.234375 14.65625 -19.234375 C 13.320312 -19.234375 12.125 -19.015625 11.0625 -18.578125 C 10.007812 -18.148438 9.175781 -17.582031 8.5625 -16.875 C 7.945312 -16.175781 7.476562 -15.421875 7.15625 -14.609375 C 6.832031 -13.796875 6.671875 -12.96875 6.671875 -12.125 C 6.671875 -10.28125 7.359375 -8.628906 8.734375 -7.171875 C 10.109375 -5.710938 12.082031 -4.984375 14.65625 -4.984375 Z M 14.65625 -4.984375 "/></g></g></g><g fill="#0071a8" fill-opacity="1"><g transform="translate(119.145506, 103.856585)"><g><path d="M 7.28125 -24.21875 L 7.28125 -4.84375 L 15.625 -4.84375 L 15.625 0 L 1.765625 0 L 1.765625 -24.21875 Z M 7.28125 -24.21875 "/></g></g></g><g fill="#0071a8" fill-opacity="1"><g transform="translate(135.73357, 103.856585)"><g><path d="M 15.625 -24.21875 L 15.625 -19.375 L 7.28125 -19.375 L 7.28125 -14.5625 L 15.265625 -14.5625 L 15.265625 -9.71875 L 7.28125 -9.71875 L 7.28125 -4.84375 L 15.625 -4.84375 L 15.625 0 L 1.765625 0 L 1.765625 -24.21875 Z M 15.625 -24.21875 "/></g></g></g><g fill="#0071a8" fill-opacity="1"><g transform="translate(152.762017, 103.856585)"><g><path d="M 14.0625 -24.21875 L 23.84375 0 L 17.90625 0 L 16.125 -4.84375 L 6.90625 -4.84375 L 5.109375 0 L -0.828125 0 L 8.953125 -24.21875 Z M 14.234375 -9.6875 L 11.53125 -16.734375 L 11.484375 -16.734375 L 8.78125 -9.6875 Z M 14.234375 -9.6875 "/></g></g></g><g fill="#0071a8" fill-opacity="1"><g transform="translate(175.77979, 103.856585)"><g><path d="M 7.28125 -15.03125 L 7.28125 0 L 1.765625 0 L 1.765625 -24.21875 L 7.28125 -24.21875 L 16.90625 -9.1875 L 16.96875 -9.1875 L 16.96875 -24.21875 L 22.484375 -24.21875 L 22.484375 0 L 16.96875 0 L 7.34375 -15.03125 Z M 7.28125 -15.03125 "/></g></g></g><g fill="#0071a8" fill-opacity="1"><g transform="translate(200.03065, 103.856585)"><g><path d="M 7.28125 -24.21875 L 7.28125 0 L 1.765625 0 L 1.765625 -24.21875 Z M 7.28125 -24.21875 "/></g></g></g><g fill="#0071a8" fill-opacity="1"><g transform="translate(209.07335, 103.856585)"><g><path d="M 7.28125 -15.03125 L 7.28125 0 L 1.765625 0 L 1.765625 -24.21875 L 7.28125 -24.21875 L 16.90625 -9.1875 L 16.96875 -9.1875 L 16.96875 -24.21875 L 22.484375 -24.21875 L 22.484375 0 L 16.96875 0 L 7.34375 -15.03125 Z M 7.28125 -15.03125 "/></g></g></g><g fill="#0071a8" fill-opacity="1"><g transform="translate(233.32421, 103.856585)"><g><path d="M 23.65625 -13.5625 L 23.65625 -8.3125 C 23.03125 -5.4375 21.660156 -3.257812 19.546875 -1.78125 C 17.429688 -0.300781 15.078125 0.4375 12.484375 0.4375 C 9.210938 0.4375 6.425781 -0.785156 4.125 -3.234375 C 1.820312 -5.679688 0.671875 -8.632812 0.671875 -12.09375 C 0.671875 -15.613281 1.796875 -18.585938 4.046875 -21.015625 C 6.296875 -23.441406 9.109375 -24.65625 12.484375 -24.65625 C 16.410156 -24.65625 19.519531 -23.273438 21.8125 -20.515625 L 18.203125 -16.5625 C 16.910156 -18.632812 15.109375 -19.671875 12.796875 -19.671875 C 11.097656 -19.671875 9.644531 -18.929688 8.4375 -17.453125 C 7.238281 -15.972656 6.640625 -14.1875 6.640625 -12.09375 C 6.640625 -10.039062 7.238281 -8.285156 8.4375 -6.828125 C 9.644531 -5.367188 11.097656 -4.640625 12.796875 -4.640625 C 14.210938 -4.640625 15.441406 -5.0625 16.484375 -5.90625 C 17.535156 -6.757812 18.0625 -7.894531 18.0625 -9.3125 L 12.484375 -9.3125 L 12.484375 -13.5625 Z M 23.65625 -13.5625 "/></g></g></g><g fill="#0071a8" fill-opacity="1"><g transform="translate(257.663144, 103.856585)"><g/></g></g><g fill="#0071a8" fill-opacity="1"><g transform="translate(265.678249, 103.856585)"><g><path d="M 1.765625 -24.21875 L 9.28125 -24.21875 C 11.550781 -24.21875 13.359375 -23.734375 14.703125 -22.765625 C 16.054688 -21.796875 16.734375 -20.226562 16.734375 -18.0625 C 16.734375 -15.632812 15.722656 -13.898438 13.703125 -12.859375 C 17.148438 -12.253906 18.875 -10.21875 18.875 -6.75 C 18.875 -4.71875 18.171875 -3.082031 16.765625 -1.84375 C 15.359375 -0.613281 13.421875 0 10.953125 0 L 1.765625 0 Z M 7.28125 -14.734375 L 7.71875 -14.734375 C 8.957031 -14.734375 9.878906 -14.945312 10.484375 -15.375 C 11.085938 -15.8125 11.390625 -16.519531 11.390625 -17.5 C 11.390625 -19.144531 10.164062 -19.96875 7.71875 -19.96875 L 7.28125 -19.96875 Z M 7.28125 -4.25 L 9.015625 -4.25 C 11.710938 -4.25 13.0625 -5.148438 13.0625 -6.953125 C 13.0625 -8.035156 12.722656 -8.8125 12.046875 -9.28125 C 11.378906 -9.75 10.367188 -9.984375 9.015625 -9.984375 L 7.28125 -9.984375 Z M 7.28125 -4.25 "/></g></g></g><g fill="#0071a8" fill-opacity="1"><g transform="translate(285.231625, 103.856585)"><g><path d="M 0.671875 -12.125 C 0.671875 -15.625 1.863281 -18.585938 4.25 -21.015625 C 6.644531 -23.441406 9.523438 -24.65625 12.890625 -24.65625 C 16.273438 -24.65625 19.148438 -23.445312 21.515625 -21.03125 C 23.890625 -18.613281 25.078125 -15.644531 25.078125 -12.125 C 25.078125 -8.582031 23.910156 -5.601562 21.578125 -3.1875 C 19.242188 -0.769531 16.347656 0.4375 12.890625 0.4375 C 9.347656 0.4375 6.425781 -0.757812 4.125 -3.15625 C 1.820312 -5.550781 0.671875 -8.539062 0.671875 -12.125 Z M 6.640625 -12.125 C 6.640625 -10.851562 6.832031 -9.691406 7.21875 -8.640625 C 7.613281 -7.597656 8.300781 -6.710938 9.28125 -5.984375 C 10.257812 -5.265625 11.460938 -4.90625 12.890625 -4.90625 C 14.941406 -4.90625 16.488281 -5.609375 17.53125 -7.015625 C 18.582031 -8.421875 19.109375 -10.125 19.109375 -12.125 C 19.109375 -14.101562 18.570312 -15.800781 17.5 -17.21875 C 16.4375 -18.632812 14.898438 -19.34375 12.890625 -19.34375 C 10.890625 -19.34375 9.347656 -18.632812 8.265625 -17.21875 C 7.179688 -15.800781 6.640625 -14.101562 6.640625 -12.125 Z M 6.640625 -12.125 "/></g></g></g><g fill="#0071a8" fill-opacity="1"><g transform="translate(310.979834, 103.856585)"><g><path d="M -0.875 -24.21875 L 5.75 -24.21875 L 10.796875 -16.46875 L 15.859375 -24.21875 L 22.484375 -24.21875 L 13.5625 -10.859375 L 13.5625 0 L 8.046875 0 L 8.046875 -10.859375 Z M -0.875 -24.21875 "/></g></g></g><g fill="#0071a8" fill-opacity="1"><g transform="translate(332.588346, 103.856585)"><g><path d="M 22.109375 -24.21875 L 10.09375 -4.84375 L 21.3125 -4.84375 L 21.3125 0 L 0.46875 0 L 12.453125 -19.375 L 2.171875 -19.375 L 2.171875 -24.21875 Z M 22.109375 -24.21875 "/></g></g></g><g fill="#5b5b5b" fill-opacity="1"><g transform="translate(124.181628, 125.704169)"><g><path d="M 4.515625 -2.09375 C 4.515625 -2.507812 4.398438 -2.828125 4.171875 -3.046875 C 3.953125 -3.265625 3.550781 -3.476562 2.96875 -3.6875 C 2.382812 -3.894531 1.9375 -4.113281 1.625 -4.34375 C 1.3125 -4.570312 1.078125 -4.832031 0.921875 -5.125 C 0.773438 -5.425781 0.703125 -5.765625 0.703125 -6.140625 C 0.703125 -6.796875 0.921875 -7.335938 1.359375 -7.765625 C 1.796875 -8.191406 2.367188 -8.40625 3.078125 -8.40625 C 3.566406 -8.40625 4 -8.296875 4.375 -8.078125 C 4.757812 -7.859375 5.050781 -7.550781 5.25 -7.15625 C 5.457031 -6.769531 5.5625 -6.347656 5.5625 -5.890625 L 4.515625 -5.890625 C 4.515625 -6.398438 4.390625 -6.796875 4.140625 -7.078125 C 3.898438 -7.359375 3.546875 -7.5 3.078125 -7.5 C 2.660156 -7.5 2.332031 -7.378906 2.09375 -7.140625 C 1.863281 -6.910156 1.75 -6.582031 1.75 -6.15625 C 1.75 -5.8125 1.875 -5.519531 2.125 -5.28125 C 2.375 -5.039062 2.765625 -4.832031 3.296875 -4.65625 C 4.109375 -4.382812 4.6875 -4.050781 5.03125 -3.65625 C 5.382812 -3.257812 5.5625 -2.742188 5.5625 -2.109375 C 5.5625 -1.429688 5.34375 -0.890625 4.90625 -0.484375 C 4.46875 -0.0859375 3.875 0.109375 3.125 0.109375 C 2.644531 0.109375 2.203125 0.00390625 1.796875 -0.203125 C 1.390625 -0.410156 1.066406 -0.703125 0.828125 -1.078125 C 0.597656 -1.460938 0.484375 -1.90625 0.484375 -2.40625 L 1.53125 -2.40625 C 1.53125 -1.894531 1.671875 -1.492188 1.953125 -1.203125 C 2.242188 -0.921875 2.632812 -0.78125 3.125 -0.78125 C 3.582031 -0.78125 3.925781 -0.894531 4.15625 -1.125 C 4.394531 -1.363281 4.515625 -1.6875 4.515625 -2.09375 Z M 4.515625 -2.09375 "/></g></g></g><g fill="#5b5b5b" fill-opacity="1"><g transform="translate(132.800305, 125.704169)"><g><path d="M 4.859375 -3.828125 L 1.9375 -3.828125 L 1.9375 -0.890625 L 5.34375 -0.890625 L 5.34375 0 L 0.890625 0 L 0.890625 -8.28125 L 5.296875 -8.28125 L 5.296875 -7.390625 L 1.9375 -7.390625 L 1.9375 -4.71875 L 4.859375 -4.71875 Z M 4.859375 -3.828125 "/></g></g></g><g fill="#5b5b5b" fill-opacity="1"><g transform="translate(141.168826, 125.704169)"><g><path d="M 3.390625 -3.359375 L 1.9375 -3.359375 L 1.9375 0 L 0.890625 0 L 0.890625 -8.28125 L 3.21875 -8.28125 C 4.03125 -8.28125 4.644531 -8.066406 5.0625 -7.640625 C 5.476562 -7.222656 5.6875 -6.609375 5.6875 -5.796875 C 5.6875 -5.285156 5.570312 -4.835938 5.34375 -4.453125 C 5.125 -4.066406 4.804688 -3.78125 4.390625 -3.59375 L 6 -0.0625 L 6 0 L 4.875 0 Z M 1.9375 -4.25 L 3.203125 -4.25 C 3.640625 -4.25 3.988281 -4.390625 4.25 -4.671875 C 4.507812 -4.953125 4.640625 -5.328125 4.640625 -5.796875 C 4.640625 -6.859375 4.15625 -7.390625 3.1875 -7.390625 L 1.9375 -7.390625 Z M 1.9375 -4.25 "/></g></g></g><g fill="#5b5b5b" fill-opacity="1"><g transform="translate(149.935324, 125.704169)"><g><path d="M 3.265625 -1.59375 L 5.15625 -8.28125 L 6.296875 -8.28125 L 3.71875 0 L 2.8125 0 L 0.234375 -8.28125 L 1.375 -8.28125 Z M 3.265625 -1.59375 "/></g></g></g><g fill="#5b5b5b" fill-opacity="1"><g transform="translate(159.042943, 125.704169)"><g><path d="M 1.984375 0 L 0.9375 0 L 0.9375 -8.28125 L 1.984375 -8.28125 Z M 1.984375 0 "/></g></g></g><g fill="#5b5b5b" fill-opacity="1"><g transform="translate(164.540339, 125.704169)"><g><path d="M 6.09375 -2.625 C 6.039062 -1.738281 5.785156 -1.0625 5.328125 -0.59375 C 4.878906 -0.125 4.242188 0.109375 3.421875 0.109375 C 2.585938 0.109375 1.925781 -0.203125 1.4375 -0.828125 C 0.945312 -1.460938 0.703125 -2.320312 0.703125 -3.40625 L 0.703125 -4.90625 C 0.703125 -5.976562 0.953125 -6.828125 1.453125 -7.453125 C 1.960938 -8.085938 2.648438 -8.40625 3.515625 -8.40625 C 4.316406 -8.40625 4.9375 -8.160156 5.375 -7.671875 C 5.8125 -7.191406 6.050781 -6.507812 6.09375 -5.625 L 5.03125 -5.625 C 4.988281 -6.300781 4.847656 -6.78125 4.609375 -7.0625 C 4.367188 -7.351562 4.003906 -7.5 3.515625 -7.5 C 2.953125 -7.5 2.519531 -7.273438 2.21875 -6.828125 C 1.914062 -6.390625 1.765625 -5.742188 1.765625 -4.890625 L 1.765625 -3.375 C 1.765625 -2.539062 1.90625 -1.898438 2.1875 -1.453125 C 2.46875 -1.003906 2.878906 -0.78125 3.421875 -0.78125 C 3.960938 -0.78125 4.351562 -0.910156 4.59375 -1.171875 C 4.832031 -1.441406 4.976562 -1.925781 5.03125 -2.625 Z M 6.09375 -2.625 "/></g></g></g><g fill="#5b5b5b" fill-opacity="1"><g transform="translate(173.727554, 125.704169)"><g><path d="M 4.859375 -3.828125 L 1.9375 -3.828125 L 1.9375 -0.890625 L 5.34375 -0.890625 L 5.34375 0 L 0.890625 0 L 0.890625 -8.28125 L 5.296875 -8.28125 L 5.296875 -7.390625 L 1.9375 -7.390625 L 1.9375 -4.71875 L 4.859375 -4.71875 Z M 4.859375 -3.828125 "/></g></g></g><g fill="#5b5b5b" fill-opacity="1"><g transform="translate(182.096074, 125.704169)"><g><path d="M 4.515625 -2.09375 C 4.515625 -2.507812 4.398438 -2.828125 4.171875 -3.046875 C 3.953125 -3.265625 3.550781 -3.476562 2.96875 -3.6875 C 2.382812 -3.894531 1.9375 -4.113281 1.625 -4.34375 C 1.3125 -4.570312 1.078125 -4.832031 0.921875 -5.125 C 0.773438 -5.425781 0.703125 -5.765625 0.703125 -6.140625 C 0.703125 -6.796875 0.921875 -7.335938 1.359375 -7.765625 C 1.796875 -8.191406 2.367188 -8.40625 3.078125 -8.40625 C 3.566406 -8.40625 4 -8.296875 4.375 -8.078125 C 4.757812 -7.859375 5.050781 -7.550781 5.25 -7.15625 C 5.457031 -6.769531 5.5625 -6.347656 5.5625 -5.890625 L 4.515625 -5.890625 C 4.515625 -6.398438 4.390625 -6.796875 4.140625 -7.078125 C 3.898438 -7.359375 3.546875 -7.5 3.078125 -7.5 C 2.660156 -7.5 2.332031 -7.378906 2.09375 -7.140625 C 1.863281 -6.910156 1.75 -6.582031 1.75 -6.15625 C 1.75 -5.8125 1.875 -5.519531 2.125 -5.28125 C 2.375 -5.039062 2.765625 -4.832031 3.296875 -4.65625 C 4.109375 -4.382812 4.6875 -4.050781 5.03125 -3.65625 C 5.382812 -3.257812 5.5625 -2.742188 5.5625 -2.109375 C 5.5625 -1.429688 5.34375 -0.890625 4.90625 -0.484375 C 4.46875 -0.0859375 3.875 0.109375 3.125 0.109375 C 2.644531 0.109375 2.203125 0.00390625 1.796875 -0.203125 C 1.390625 -0.410156 1.066406 -0.703125 0.828125 -1.078125 C 0.597656 -1.460938 0.484375 -1.90625 0.484375 -2.40625 L 1.53125 -2.40625 C 1.53125 -1.894531 1.671875 -1.492188 1.953125 -1.203125 C 2.242188 -0.921875 2.632812 -0.78125 3.125 -0.78125 C 3.582031 -0.78125 3.925781 -0.894531 4.15625 -1.125 C 4.394531 -1.363281 4.515625 -1.6875 4.515625 -2.09375 Z M 4.515625 -2.09375 "/></g></g></g></svg>